<?xml version="1.0" encoding="UTF-8"?>
<svg version="1.1" xmlns="http://www.w3.org/2000/svg" width="334" height="388">
<path d="M0 0 C110.22 0 220.44 0 334 0 C334 128.04 334 256.08 334 388 C223.78 388 113.56 388 0 388 C0 259.96 0 131.92 0 0 Z " fill="#F9F9F9" transform="translate(0,0)"/>
<path d="M0 0 C19.8 0 39.6 0 60 0 C65.97725467 15.9393458 71.93888998 31.87972512 77.79663086 47.86254883 C78.65461445 50.20086437 79.51470703 52.53840695 80.37670898 54.87524414 C81.64248514 58.30707709 82.90203565 61.74113558 84.16015625 65.17578125 C84.54752457 66.22244461 84.93489288 67.26910797 85.33399963 68.3474884 C85.6853447 69.31087631 86.03668976 70.27426422 86.39868164 71.2668457 C86.70906876 72.11156937 87.01945587 72.95629303 87.33924866 73.82661438 C88 76 88 76 88 79 C88.99 78.67 89.98 78.34 91 78 C92.09054971 75.68143633 92.97579081 73.47275587 93.8125 71.0625 C94.06749268 70.35681885 94.32248535 69.6511377 94.58520508 68.92407227 C96.80417184 62.72359858 98.88595938 56.47276142 100.9074707 50.20532227 C102.37750566 45.68415493 104.09286762 41.36057871 106 37 C106.95538227 34.567388 107.89558742 32.13436272 108.8125 29.6875 C109.06676758 29.01178955 109.32103516 28.3360791 109.58300781 27.63989258 C111.89136937 21.43351557 113.98200685 15.16010219 115.99536133 8.85229492 C117.06220391 5.55976627 118.06771608 2.89842588 120 0 C138.15 0 156.3 0 175 0 C175 77.22 175 154.44 175 234 C160.81 234 146.62 234 132 234 C131.9540515 219.51279127 131.91756103 205.02563088 131.89637566 190.53836441 C131.88625784 183.8048436 131.87231913 177.07138297 131.84912109 170.33789062 C131.73000977 134.83925912 132.29883176 99.46011017 134 64 C133.01 64 132.02 64 131 64 C130.83827301 64.56688538 130.67654602 65.13377075 130.50991821 65.71783447 C128.37352169 73.0350359 125.85916967 80.19042484 123.2734375 87.359375 C122.80777775 88.65579872 122.34230294 89.95228889 121.8769989 91.24884033 C120.63601669 94.70417635 119.39142139 98.15819992 118.14583206 101.61187744 C117.37326947 103.75480012 116.60174199 105.89809271 115.83053589 108.04150391 C106.69991903 133.41526444 97.41970895 158.73202027 88 184 C86.1600146 181.2400219 85.17826776 179.02717621 84.07080078 175.93261719 C83.69433914 174.8871875 83.3178775 173.84175781 82.93000793 172.76464844 C82.52255844 171.6202832 82.11510895 170.47591797 81.6953125 169.296875 C81.0330931 167.45278033 80.37087138 165.6086865 79.70855808 163.76462555 C78.99993567 161.78936277 78.29327044 159.81340896 77.58706665 157.83728027 C76.12055968 153.73486667 74.6463248 149.63525763 73.1706543 145.53613281 C68.8756986 133.6015907 64.59092411 121.66347277 60.3298378 109.71679306 C58.26848111 103.93924179 56.19571487 98.16584043 54.11932373 92.39367676 C53.24831559 89.96513797 52.38165222 87.53503651 51.51934814 85.10339355 C50.32155195 81.72652453 49.10975282 78.35500478 47.89453125 74.984375 C47.54235031 73.98003418 47.19016937 72.97569336 46.82731628 71.94091797 C46.33235405 70.58135986 46.33235405 70.58135986 45.82739258 69.19433594 C45.54511307 68.40347595 45.26283356 67.61261597 44.97200012 66.79779053 C44.07247851 64.64409191 44.07247851 64.64409191 41 64 C41.05995148 64.61504898 41.11990295 65.23009796 41.18167114 65.86378479 C44.5856356 103.394026 44.27797852 141.24946131 44.1373291 178.89282227 C44.11632678 185.1440283 44.10762312 191.39525274 44.09765625 197.64648438 C44.07663731 209.76437575 44.04167621 221.88216207 44 234 C29.48 234 14.96 234 0 234 C0 156.78 0 79.56 0 0 Z " fill="#3B1DF7" transform="translate(79,79)"/>
</svg>
